<svg width="609" height="610" viewBox="0 0 609 610" fill="none" xmlns="http://www.w3.org/2000/svg">
<g clip-path="url(#clip0_216_357)">
<path d="M0 0H608.9V609.7H0V0Z" fill="#FFCF00"/>
<path d="M29.2808 216.604H66.1863L74.0078 178.498H115.121L121.942 216.604H167.266L129.563 32.0894H70.7979L29.2808 216.604ZM95.467 70.1957H95.8676L108.905 146.408H80.2244L95.467 70.1957Z" fill="#231F1F"/>
<path d="M179.502 216.604H234.657C290.008 216.604 311.471 172.481 311.471 120.335C311.471 66.1845 285.196 32.0894 229.041 32.0894H179.502V216.604ZM225.23 64.1788H229.041C259.323 64.1788 262.332 98.2739 262.332 118.33C262.332 142.397 262.332 182.509 230.242 182.509H225.23V64.1788Z" fill="#231E1F"/>
<path d="M306.055 216.604H344.162L352.184 178.498H394.501L401.722 216.604H448.451L409.344 32.0894H348.974L306.055 216.604ZM374.243 70.1957H374.847L388.085 146.408H358.6L374.243 70.1957Z" fill="#231E1F"/>
<path d="M538.102 96.2684C538.102 84.2348 534.892 62.1733 518.448 62.1733C499.195 62.1733 496.385 90.2515 496.385 124.347C496.385 162.453 498.19 184.515 519.449 184.515C536.297 184.515 540.108 170.475 541.109 148.414L580.62 152.425C580.62 192.537 556.955 218.61 517.444 218.61C462.089 218.61 447.046 172.481 447.046 124.347C447.046 78.2181 461.889 28.0781 517.444 28.0781C561.166 28.0781 580.62 58.1621 580.62 96.2684H538.102Z" fill="#231E1F"/>
<path d="M97.2614 534H81.7926V490.364H97.3892C101.778 490.364 105.557 491.237 108.724 492.984C111.892 494.717 114.328 497.21 116.033 500.463C117.751 503.716 118.611 507.608 118.611 512.139C118.611 516.685 117.751 520.591 116.033 523.858C114.328 527.125 111.878 529.632 108.682 531.379C105.5 533.126 101.693 534 97.2614 534ZM91.0185 526.095H96.8778C99.6051 526.095 101.899 525.612 103.76 524.646C105.635 523.666 107.041 522.153 107.979 520.108C108.93 518.048 109.406 515.392 109.406 512.139C109.406 508.915 108.93 506.28 107.979 504.234C107.041 502.189 105.642 500.683 103.781 499.717C101.92 498.751 99.6264 498.268 96.8991 498.268H91.0185V526.095ZM121.791 497.97V490.364H157.629V497.97H144.27V534H135.15V497.97H121.791ZM200.04 505.641H190.708C190.537 504.433 190.189 503.361 189.664 502.423C189.138 501.472 188.463 500.662 187.64 499.994C186.816 499.327 185.864 498.815 184.784 498.46C183.719 498.105 182.561 497.928 181.311 497.928C179.053 497.928 177.086 498.489 175.409 499.611C173.733 500.719 172.434 502.338 171.51 504.469C170.587 506.585 170.125 509.156 170.125 512.182C170.125 515.293 170.587 517.906 171.51 520.023C172.448 522.139 173.755 523.737 175.431 524.817C177.107 525.896 179.046 526.436 181.248 526.436C182.483 526.436 183.627 526.273 184.678 525.946C185.743 525.619 186.688 525.143 187.512 524.518C188.336 523.879 189.017 523.105 189.557 522.196C190.111 521.287 190.495 520.25 190.708 519.085L200.04 519.128C199.799 521.131 199.195 523.062 198.229 524.923C197.277 526.77 195.992 528.425 194.373 529.888C192.767 531.337 190.85 532.487 188.62 533.339C186.404 534.178 183.897 534.597 181.098 534.597C177.206 534.597 173.726 533.716 170.658 531.955C167.604 530.193 165.189 527.643 163.414 524.305C161.652 520.967 160.772 516.926 160.772 512.182C160.772 507.423 161.667 503.375 163.456 500.037C165.246 496.699 167.675 494.156 170.743 492.409C173.811 490.648 177.263 489.767 181.098 489.767C183.627 489.767 185.971 490.122 188.13 490.832C190.303 491.543 192.228 492.58 193.904 493.943C195.58 495.293 196.944 496.947 197.995 498.908C199.06 500.868 199.742 503.112 200.04 505.641ZM226.876 508.581V515.783H206.975V508.581H226.876ZM231.303 497.97V490.364H267.141V497.97H253.781V534H244.662V497.97H231.303ZM269.474 534V501.273H278.273V506.983H278.614C279.211 504.952 280.212 503.418 281.619 502.381C283.025 501.33 284.644 500.804 286.477 500.804C286.931 500.804 287.421 500.832 287.947 500.889C288.472 500.946 288.934 501.024 289.332 501.124V509.178C288.906 509.05 288.316 508.936 287.563 508.837C286.81 508.737 286.121 508.688 285.496 508.688C284.161 508.688 282.968 508.979 281.917 509.561C280.88 510.129 280.056 510.925 279.445 511.947C278.849 512.97 278.55 514.149 278.55 515.484V534H269.474ZM302.419 534.618C300.331 534.618 298.471 534.256 296.837 533.531C295.203 532.793 293.911 531.706 292.959 530.271C292.022 528.822 291.553 527.018 291.553 524.859C291.553 523.041 291.887 521.514 292.554 520.278C293.222 519.043 294.131 518.048 295.282 517.295C296.432 516.543 297.739 515.974 299.202 515.591C300.679 515.207 302.228 514.938 303.847 514.781C305.75 514.582 307.284 514.398 308.449 514.227C309.614 514.043 310.459 513.773 310.985 513.418C311.51 513.062 311.773 512.537 311.773 511.841V511.713C311.773 510.364 311.347 509.32 310.495 508.581C309.657 507.842 308.463 507.473 306.915 507.473C305.282 507.473 303.982 507.835 303.016 508.56C302.05 509.27 301.411 510.165 301.098 511.244L292.703 510.562C293.13 508.574 293.968 506.855 295.218 505.406C296.468 503.943 298.08 502.821 300.054 502.04C302.043 501.244 304.344 500.847 306.958 500.847C308.776 500.847 310.516 501.06 312.178 501.486C313.854 501.912 315.338 502.572 316.631 503.467C317.938 504.362 318.968 505.513 319.721 506.919C320.473 508.311 320.85 509.98 320.85 511.926V534H312.242V529.462H311.986C311.461 530.484 310.757 531.386 309.877 532.168C308.996 532.935 307.938 533.538 306.702 533.979C305.466 534.405 304.039 534.618 302.419 534.618ZM305.019 528.354C306.354 528.354 307.533 528.091 308.556 527.565C309.578 527.026 310.381 526.301 310.963 525.392C311.546 524.483 311.837 523.453 311.837 522.303V518.83C311.553 519.014 311.162 519.185 310.665 519.341C310.182 519.483 309.635 519.618 309.025 519.746C308.414 519.859 307.803 519.966 307.192 520.065C306.581 520.151 306.027 520.229 305.53 520.3C304.465 520.456 303.534 520.705 302.739 521.045C301.944 521.386 301.326 521.848 300.885 522.43C300.445 522.999 300.225 523.709 300.225 524.561C300.225 525.797 300.672 526.741 301.567 527.395C302.476 528.034 303.627 528.354 305.019 528.354ZM336.968 515.08V534H327.892V501.273H336.542V507.047H336.926C337.65 505.143 338.865 503.638 340.569 502.53C342.274 501.408 344.341 500.847 346.77 500.847C349.042 500.847 351.024 501.344 352.714 502.338C354.404 503.332 355.718 504.753 356.656 506.599C357.593 508.432 358.062 510.619 358.062 513.162V534H348.985V514.781C349 512.778 348.488 511.216 347.451 510.094C346.414 508.957 344.987 508.389 343.169 508.389C341.947 508.389 340.868 508.652 339.93 509.178C339.007 509.703 338.282 510.47 337.757 511.479C337.245 512.473 336.983 513.673 336.968 515.08ZM392.446 510.605L384.136 511.116C383.994 510.406 383.689 509.767 383.22 509.199C382.751 508.616 382.134 508.155 381.366 507.814C380.614 507.459 379.712 507.281 378.661 507.281C377.254 507.281 376.068 507.58 375.102 508.176C374.136 508.759 373.653 509.54 373.653 510.52C373.653 511.301 373.966 511.962 374.591 512.501C375.216 513.041 376.288 513.474 377.808 513.801L383.732 514.994C386.913 515.648 389.286 516.699 390.848 518.148C392.411 519.597 393.192 521.5 393.192 523.858C393.192 526.003 392.56 527.885 391.295 529.504C390.045 531.124 388.327 532.388 386.139 533.297C383.966 534.192 381.459 534.639 378.618 534.639C374.286 534.639 370.834 533.737 368.263 531.933C365.706 530.115 364.207 527.643 363.767 524.518L372.695 524.05C372.964 525.371 373.618 526.379 374.655 527.075C375.692 527.757 377.02 528.098 378.639 528.098C380.23 528.098 381.509 527.793 382.474 527.182C383.455 526.557 383.952 525.754 383.966 524.774C383.952 523.95 383.604 523.276 382.922 522.75C382.24 522.21 381.189 521.798 379.768 521.514L374.101 520.385C370.905 519.746 368.526 518.638 366.963 517.061C365.415 515.484 364.641 513.474 364.641 511.031C364.641 508.929 365.209 507.118 366.345 505.598C367.496 504.078 369.108 502.906 371.182 502.082C373.27 501.259 375.713 500.847 378.511 500.847C382.645 500.847 385.898 501.72 388.27 503.467C390.656 505.214 392.048 507.594 392.446 510.605ZM407.984 490.364V534H398.907V490.364H407.984ZM424.587 534.618C422.499 534.618 420.638 534.256 419.005 533.531C417.371 532.793 416.079 531.706 415.127 530.271C414.19 528.822 413.721 527.018 413.721 524.859C413.721 523.041 414.055 521.514 414.722 520.278C415.39 519.043 416.299 518.048 417.45 517.295C418.6 516.543 419.907 515.974 421.37 515.591C422.847 515.207 424.396 514.938 426.015 514.781C427.918 514.582 429.452 514.398 430.617 514.227C431.782 514.043 432.627 513.773 433.153 513.418C433.678 513.062 433.941 512.537 433.941 511.841V511.713C433.941 510.364 433.515 509.32 432.663 508.581C431.825 507.842 430.631 507.473 429.083 507.473C427.45 507.473 426.15 507.835 425.184 508.56C424.218 509.27 423.579 510.165 423.266 511.244L414.871 510.562C415.298 508.574 416.136 506.855 417.386 505.406C418.636 503.943 420.248 502.821 422.222 502.04C424.211 501.244 426.512 500.847 429.126 500.847C430.944 500.847 432.684 501.06 434.346 501.486C436.022 501.912 437.506 502.572 438.799 503.467C440.106 504.362 441.136 505.513 441.888 506.919C442.641 508.311 443.018 509.98 443.018 511.926V534H434.41V529.462H434.154C433.629 530.484 432.925 531.386 432.045 532.168C431.164 532.935 430.106 533.538 428.87 533.979C427.634 534.405 426.207 534.618 424.587 534.618ZM427.187 528.354C428.522 528.354 429.701 528.091 430.724 527.565C431.746 527.026 432.549 526.301 433.131 525.392C433.714 524.483 434.005 523.453 434.005 522.303V518.83C433.721 519.014 433.33 519.185 432.833 519.341C432.35 519.483 431.803 519.618 431.192 519.746C430.582 519.859 429.971 519.966 429.36 520.065C428.749 520.151 428.195 520.229 427.698 520.3C426.633 520.456 425.702 520.705 424.907 521.045C424.112 521.386 423.494 521.848 423.053 522.43C422.613 522.999 422.393 523.709 422.393 524.561C422.393 525.797 422.84 526.741 423.735 527.395C424.644 528.034 425.795 528.354 427.187 528.354ZM467.467 501.273V508.091H447.759V501.273H467.467ZM452.233 493.432H461.31V523.943C461.31 524.781 461.438 525.435 461.693 525.903C461.949 526.358 462.304 526.678 462.759 526.862C463.227 527.047 463.767 527.139 464.378 527.139C464.804 527.139 465.23 527.104 465.656 527.033C466.082 526.947 466.409 526.884 466.636 526.841L468.064 533.595C467.609 533.737 466.97 533.901 466.146 534.085C465.322 534.284 464.321 534.405 463.142 534.447C460.955 534.533 459.037 534.241 457.389 533.574C455.756 532.906 454.484 531.869 453.575 530.463C452.666 529.057 452.219 527.281 452.233 525.136V493.432ZM487.815 534.639C484.506 534.639 481.643 533.936 479.229 532.53C476.828 531.109 474.974 529.135 473.668 526.607C472.361 524.064 471.707 521.116 471.707 517.764C471.707 514.384 472.361 511.429 473.668 508.901C474.974 506.358 476.828 504.384 479.229 502.977C481.643 501.557 484.506 500.847 487.815 500.847C491.125 500.847 493.98 501.557 496.381 502.977C498.795 504.384 500.656 506.358 501.963 508.901C503.27 511.429 503.923 514.384 503.923 517.764C503.923 521.116 503.27 524.064 501.963 526.607C500.656 529.135 498.795 531.109 496.381 532.53C493.98 533.936 491.125 534.639 487.815 534.639ZM487.858 527.608C489.364 527.608 490.621 527.182 491.629 526.33C492.638 525.463 493.398 524.284 493.909 522.793C494.435 521.301 494.697 519.604 494.697 517.7C494.697 515.797 494.435 514.099 493.909 512.608C493.398 511.116 492.638 509.937 491.629 509.071C490.621 508.205 489.364 507.771 487.858 507.771C486.338 507.771 485.06 508.205 484.023 509.071C483 509.937 482.226 511.116 481.7 512.608C481.189 514.099 480.933 515.797 480.933 517.7C480.933 519.604 481.189 521.301 481.7 522.793C482.226 524.284 483 525.463 484.023 526.33C485.06 527.182 486.338 527.608 487.858 527.608ZM509.825 534V501.273H518.625V506.983H518.966C519.563 504.952 520.564 503.418 521.97 502.381C523.376 501.33 524.996 500.804 526.828 500.804C527.283 500.804 527.773 500.832 528.298 500.889C528.824 500.946 529.286 501.024 529.683 501.124V509.178C529.257 509.05 528.668 508.936 527.915 508.837C527.162 508.737 526.473 508.688 525.848 508.688C524.513 508.688 523.32 508.979 522.268 509.561C521.232 510.129 520.408 510.925 519.797 511.947C519.2 512.97 518.902 514.149 518.902 515.484V534H509.825Z" fill="black"/>
</g>
<defs>
<clipPath id="clip0_216_357">
<rect width="608.9" height="609.7" fill="white"/>
</clipPath>
</defs>
</svg>
